<svg width="120" height="49" viewBox="0 0 120 49" fill="none" xmlns="http://www.w3.org/2000/svg">
<path fill-rule="evenodd" clip-rule="evenodd" d="M79.3202 34.4559C78.7302 34.4559 78.1644 34.2223 77.7472 33.8065C77.33 33.3908 77.0956 32.8269 77.0956 32.2389V31.6098H66.7467V32.2389C66.7467 32.8269 66.5123 33.3908 66.0951 33.8065C65.6779 34.2223 65.112 34.4559 64.522 34.4559C63.932 34.4559 63.3662 34.2223 62.949 33.8065C62.5318 33.3908 62.2974 32.8269 62.2974 32.2389V24.1333C62.2974 18.8455 66.6147 14.5431 71.9214 14.5431C77.228 14.5431 81.547 18.846 81.547 24.1333V32.2389C81.547 32.5302 81.4893 32.8187 81.3774 33.0878C81.2655 33.3569 81.1014 33.6014 80.8946 33.8073C80.6878 34.0132 80.4424 34.1764 80.1722 34.2877C79.9021 34.399 79.6126 34.4561 79.3202 34.4559ZM77.0956 24.1333V27.176H66.7467V24.1333C66.7604 22.7747 67.3116 21.4763 68.2805 20.5204C69.2494 19.5645 70.5577 19.0283 71.9211 19.0283C73.2845 19.0283 74.5929 19.5645 75.5618 20.5204C76.5307 21.4763 77.0819 22.7747 77.0956 24.1333Z" fill="white"/>
<path d="M41.4891 34.0836C41.8547 34.3265 42.2844 34.4561 42.7238 34.4559C43.0173 34.4563 43.308 34.3987 43.579 34.2863C43.85 34.174 44.0959 34.0091 44.3025 33.8012L50.4378 27.6457L56.573 33.8012C56.7796 34.0091 57.0255 34.174 57.2965 34.2863C57.5675 34.3987 57.8582 34.4563 58.1517 34.4559C58.591 34.4558 59.0205 34.3262 59.386 34.0832C59.7515 33.8403 60.0366 33.4949 60.2054 33.0907C60.3742 32.6865 60.4191 32.2415 60.3345 31.8119C60.2499 31.3823 60.0395 30.9873 59.7299 30.6766L53.5733 24.4997L59.7299 18.3228C60.1457 17.9057 60.3781 17.341 60.3761 16.753C60.3741 16.165 60.1378 15.6019 59.7191 15.1876C59.3005 14.7732 58.7339 14.5416 58.1439 14.5436C57.5538 14.5456 56.9888 14.7811 56.573 15.1983L50.4378 21.3538L44.3025 15.1983C43.8867 14.7811 43.3217 14.5456 42.7317 14.5436C42.1416 14.5416 41.575 14.7732 41.1564 15.1876C40.7377 15.6019 40.5014 16.165 40.4994 16.753C40.4974 17.341 40.7298 17.9057 41.1456 18.3228L47.3022 24.4997L41.1456 30.6766C40.8358 30.9872 40.6252 31.3822 40.5404 31.8119C40.4556 32.2416 40.5005 32.6867 40.6693 33.091C40.8382 33.4953 41.1234 33.8407 41.4891 34.0836Z" fill="white"/>
<path fill-rule="evenodd" clip-rule="evenodd" d="M21.6055 26.0237H33.9368V32.2389C33.9368 32.8269 34.1712 33.3908 34.5884 33.8065C35.0056 34.2223 35.5714 34.4559 36.1614 34.4559C36.4536 34.4559 36.7429 34.3986 37.0128 34.2873C37.2828 34.1759 37.528 34.0126 37.7346 33.8067C37.9412 33.6008 38.1051 33.3564 38.2168 33.0874C38.3286 32.8184 38.3861 32.5301 38.386 32.2389V16.7606C38.386 16.1726 38.1517 15.6087 37.7345 15.1929C37.3173 14.7772 36.7514 14.5436 36.1614 14.5436C36.1056 14.5436 36.0501 14.5457 35.9948 14.5498C35.9469 14.5467 35.8988 14.5452 35.8505 14.5452H20.2985C20.2483 14.5478 20.1986 14.5478 20.1499 14.5478C18.6228 14.5692 17.1668 15.1942 16.1022 16.2854C15.0375 17.3766 14.4515 18.8445 14.4729 20.3663C14.4944 21.8881 15.1216 23.3391 16.2165 24.4001C16.5101 24.6845 16.8308 24.9346 17.1724 25.148L14.7098 31.4314C14.5782 31.7675 14.5308 32.1305 14.5718 32.489C14.6128 32.8474 14.7408 33.1905 14.9448 33.4885C15.1488 33.7865 15.4227 34.0304 15.7426 34.1992C16.0626 34.3679 16.419 34.4564 16.781 34.4569C17.2289 34.4569 17.6663 34.3222 18.0361 34.0705C18.406 33.8188 18.691 33.4617 18.8538 33.0459L21.6055 26.0237ZM20.3153 21.5909H33.9368V18.979H20.2787C19.9311 18.9839 19.5997 19.1261 19.3574 19.3744C19.1151 19.6228 18.9817 19.9569 18.9865 20.3032C18.9914 20.6496 19.1341 20.9798 19.3833 21.2213C19.6325 21.4628 19.9677 21.5957 20.3153 21.5909Z" fill="white"/>
<path fill-rule="evenodd" clip-rule="evenodd" d="M85.6654 34.4559H103.217C103.807 34.4559 104.373 34.2223 104.79 33.8065C105.208 33.3908 105.442 32.8269 105.442 32.2389C105.442 31.651 105.208 31.0871 104.79 30.6713C104.373 30.2556 103.807 30.022 103.217 30.022H102.728V23.3968C102.728 21.0807 101.89 18.8951 100.368 17.2415C98.7964 15.5337 96.6922 14.5947 94.4424 14.5947C92.1927 14.5947 90.0874 15.5347 88.5171 17.2415C86.9939 18.8961 86.1564 21.0817 86.1564 23.3968V30.022H85.6654C85.0754 30.022 84.5095 30.2556 84.0923 30.6713C83.6751 31.0871 83.4408 31.651 83.4408 32.2389C83.4408 32.8269 83.6751 33.3908 84.0923 33.8065C84.5095 34.2223 85.0754 34.4559 85.6654 34.4559ZM90.6056 30.022H98.2787V23.3968C98.2787 20.9889 96.5577 19.0296 94.4424 19.0296C92.3272 19.0296 90.6056 20.9889 90.6056 23.3968V30.022Z" fill="white"/>
<path fill-rule="evenodd" clip-rule="evenodd" d="M60 0C43.6362 0 28.7697 2.63176 17.9528 6.92707C12.5475 9.07345 8.09752 11.6572 4.98035 14.5837C1.86099 17.5123 0 20.8627 0 24.5C0 28.1373 1.86099 31.4877 4.98035 34.4163C8.09752 37.3428 12.5475 39.9265 17.9528 42.0729C28.7697 46.3682 43.6362 49 60 49C76.3638 49 91.2302 46.3682 102.047 42.0729C107.453 39.9265 111.902 37.3428 115.02 34.4163C118.139 31.4877 120 28.1373 120 24.5C120 20.8627 118.139 17.5123 115.02 14.5837C111.902 11.6572 107.453 9.07345 102.047 6.92707C91.2302 2.63176 76.3638 0 60 0ZM2.2508 24.5C2.2508 21.6815 3.68469 18.8817 6.52376 16.2164C9.36503 13.5489 13.537 11.095 18.7859 9.01075C29.2774 4.84471 43.8483 2.24302 60 2.24302C76.1517 2.24302 90.7226 4.84471 101.214 9.01075C106.463 11.095 110.635 13.5489 113.476 16.2164C116.315 18.8817 117.749 21.6815 117.749 24.5C117.749 27.3185 116.315 30.1183 113.476 32.7837C110.635 35.4511 106.463 37.905 101.214 39.9892C90.7226 44.1553 76.1517 46.757 60 46.757C43.8483 46.757 29.2774 44.1553 18.7859 39.9892C13.537 37.905 9.36503 35.4511 6.52376 32.7837C3.68469 30.1183 2.2508 27.3185 2.2508 24.5Z" fill="white"/>
</svg>
