<svg width="21" height="21" viewBox="0 0 21 21" fill="none" xmlns="http://www.w3.org/2000/svg">
<g clip-path="url(#clip0_568_256)">
<path d="M0.955976 11.1375C0.952814 11.5771 1.30994 11.9342 1.74949 11.931L9.07802 11.8783L9.02529 19.2069C9.02213 19.6464 9.37925 20.0035 9.8188 20.0004C10.2495 19.9973 10.5979 19.6489 10.601 19.2182L10.6587 11.1966C10.6623 10.6987 10.2577 10.2941 9.7597 10.2976L1.73815 10.3554C1.30746 10.3585 0.959075 10.7068 0.955976 11.1375Z" fill="#0A51F9"/>
</g>
<g clip-path="url(#clip1_568_256)">
<path d="M6.6591 5.43636C6.65594 5.87591 7.01307 6.23304 7.45261 6.22988L14.7811 6.17715L14.7284 13.5057C14.7253 13.9452 15.0824 14.3024 15.5219 14.2992C15.9526 14.2961 16.301 13.9477 16.3041 13.517L16.3618 5.49546C16.3654 4.99749 15.9608 4.59289 15.4628 4.59648L7.44128 4.65419C7.01058 4.65729 6.6622 5.00567 6.6591 5.43636Z" fill="#0A51F9"/>
</g>
<defs>
<clipPath id="clip0_568_256">
<rect width="8.16392" height="13.4122" fill="white" transform="translate(0 11.4734) rotate(-45)"/>
</clipPath>
<clipPath id="clip1_568_256">
<rect width="8.16392" height="13.4122" fill="white" transform="translate(5.70312 5.77222) rotate(-45)"/>
</clipPath>
</defs>
</svg>
